<mxfile host="Electron" modified="2023-05-03T06:27:16.613Z" agent="Mozilla/5.0 (Windows NT 10.0; Win64; x64) AppleWebKit/537.36 (KHTML, like Gecko) draw.io/21.1.2 Chrome/106.0.5249.199 Electron/21.4.3 Safari/537.36" etag="PkgtOYMSLEIx32aV1AGp" version="21.1.2" type="device" pages="5">
  <diagram name="Page-1" id="ogNKOLYSSpkCVHTO5DYr">
    <mxGraphModel dx="827" dy="399" grid="0" gridSize="10" guides="1" tooltips="1" connect="1" arrows="1" fold="1" page="1" pageScale="1" pageWidth="850" pageHeight="1100" math="0" shadow="0">
      <root>
        <mxCell id="0" />
        <mxCell id="1" parent="0" />
        <mxCell id="EZv1hBcNhqDDd6e0I5WJ-1" value="register/login" style="rounded=0;whiteSpace=wrap;html=1;" parent="1" vertex="1">
          <mxGeometry x="210" y="70" width="100" height="50" as="geometry" />
        </mxCell>
        <mxCell id="EZv1hBcNhqDDd6e0I5WJ-2" value="get matches" style="rounded=0;whiteSpace=wrap;html=1;" parent="1" vertex="1">
          <mxGeometry x="570" y="70" width="100" height="50" as="geometry" />
        </mxCell>
        <mxCell id="EZv1hBcNhqDDd6e0I5WJ-3" value="Dreampredictor" style="ellipse;whiteSpace=wrap;html=1;" parent="1" vertex="1">
          <mxGeometry x="380" y="170" width="120" height="80" as="geometry" />
        </mxCell>
        <mxCell id="EZv1hBcNhqDDd6e0I5WJ-4" value="ask a query" style="rounded=0;whiteSpace=wrap;html=1;" parent="1" vertex="1">
          <mxGeometry x="210" y="300" width="110" height="50" as="geometry" />
        </mxCell>
        <mxCell id="EZv1hBcNhqDDd6e0I5WJ-5" value="get prediction" style="rounded=0;whiteSpace=wrap;html=1;" parent="1" vertex="1">
          <mxGeometry x="570" y="295" width="120" height="60" as="geometry" />
        </mxCell>
        <mxCell id="EZv1hBcNhqDDd6e0I5WJ-6" value="" style="endArrow=classic;html=1;rounded=0;entryX=0.844;entryY=-0.038;entryDx=0;entryDy=0;entryPerimeter=0;" parent="1" target="EZv1hBcNhqDDd6e0I5WJ-4" edge="1">
          <mxGeometry width="50" height="50" relative="1" as="geometry">
            <mxPoint x="400" y="240" as="sourcePoint" />
            <mxPoint x="450" y="190" as="targetPoint" />
          </mxGeometry>
        </mxCell>
        <mxCell id="EZv1hBcNhqDDd6e0I5WJ-7" value="" style="endArrow=classic;html=1;rounded=0;exitX=0;exitY=0;exitDx=0;exitDy=0;entryX=1;entryY=0.5;entryDx=0;entryDy=0;" parent="1" source="EZv1hBcNhqDDd6e0I5WJ-3" target="EZv1hBcNhqDDd6e0I5WJ-1" edge="1">
          <mxGeometry width="50" height="50" relative="1" as="geometry">
            <mxPoint x="400" y="240" as="sourcePoint" />
            <mxPoint x="450" y="190" as="targetPoint" />
          </mxGeometry>
        </mxCell>
        <mxCell id="EZv1hBcNhqDDd6e0I5WJ-8" value="" style="endArrow=classic;html=1;rounded=0;exitX=1;exitY=0;exitDx=0;exitDy=0;entryX=0.164;entryY=1.048;entryDx=0;entryDy=0;entryPerimeter=0;" parent="1" source="EZv1hBcNhqDDd6e0I5WJ-3" target="EZv1hBcNhqDDd6e0I5WJ-2" edge="1">
          <mxGeometry width="50" height="50" relative="1" as="geometry">
            <mxPoint x="400" y="240" as="sourcePoint" />
            <mxPoint x="450" y="190" as="targetPoint" />
          </mxGeometry>
        </mxCell>
        <mxCell id="EZv1hBcNhqDDd6e0I5WJ-9" value="" style="endArrow=classic;html=1;rounded=0;exitX=0.958;exitY=0.768;exitDx=0;exitDy=0;exitPerimeter=0;entryX=0.311;entryY=-0.005;entryDx=0;entryDy=0;entryPerimeter=0;" parent="1" source="EZv1hBcNhqDDd6e0I5WJ-3" target="EZv1hBcNhqDDd6e0I5WJ-5" edge="1">
          <mxGeometry width="50" height="50" relative="1" as="geometry">
            <mxPoint x="400" y="240" as="sourcePoint" />
            <mxPoint x="450" y="190" as="targetPoint" />
          </mxGeometry>
        </mxCell>
        <mxCell id="utg2A1t14XNKIW2batgY-1" value="DFD 0 level" style="text;html=1;align=center;verticalAlign=middle;resizable=0;points=[];autosize=1;strokeColor=none;fillColor=none;" vertex="1" parent="1">
          <mxGeometry x="385" y="35" width="90" height="30" as="geometry" />
        </mxCell>
        <mxCell id="utg2A1t14XNKIW2batgY-2" value="Vaibhav patel&lt;br&gt;201070055" style="text;html=1;align=center;verticalAlign=middle;resizable=0;points=[];autosize=1;strokeColor=none;fillColor=none;" vertex="1" parent="1">
          <mxGeometry x="580" y="200" width="100" height="40" as="geometry" />
        </mxCell>
      </root>
    </mxGraphModel>
  </diagram>
  <diagram id="MOQ-bnwdKy8N3Dgaos8X" name="Page-2">
    <mxGraphModel dx="973" dy="469" grid="0" gridSize="10" guides="1" tooltips="1" connect="1" arrows="1" fold="1" page="1" pageScale="1" pageWidth="850" pageHeight="1100" math="0" shadow="0">
      <root>
        <mxCell id="0" />
        <mxCell id="1" parent="0" />
        <mxCell id="Z1BMxQTBL2a3iiyQ45z8-1" value="homepage" style="rounded=0;whiteSpace=wrap;html=1;" parent="1" vertex="1">
          <mxGeometry x="260" y="130" width="90" height="40" as="geometry" />
        </mxCell>
        <mxCell id="Z1BMxQTBL2a3iiyQ45z8-2" value="get matches" style="rounded=0;whiteSpace=wrap;html=1;" parent="1" vertex="1">
          <mxGeometry x="530" y="110" width="80" height="40" as="geometry" />
        </mxCell>
        <mxCell id="Z1BMxQTBL2a3iiyQ45z8-3" value="Dreampredictor" style="ellipse;whiteSpace=wrap;html=1;" parent="1" vertex="1">
          <mxGeometry x="400" y="190" width="100" height="60" as="geometry" />
        </mxCell>
        <mxCell id="Z1BMxQTBL2a3iiyQ45z8-4" value="help" style="rounded=0;whiteSpace=wrap;html=1;" parent="1" vertex="1">
          <mxGeometry x="270" y="270" width="90" height="32.5" as="geometry" />
        </mxCell>
        <mxCell id="Z1BMxQTBL2a3iiyQ45z8-5" value="get prediction" style="rounded=0;whiteSpace=wrap;html=1;" parent="1" vertex="1">
          <mxGeometry x="500" y="277.5" width="90" height="45" as="geometry" />
        </mxCell>
        <mxCell id="Z1BMxQTBL2a3iiyQ45z8-6" value="" style="endArrow=classic;html=1;rounded=0;entryX=0.844;entryY=-0.038;entryDx=0;entryDy=0;entryPerimeter=0;exitX=0.085;exitY=0.794;exitDx=0;exitDy=0;exitPerimeter=0;" parent="1" source="Z1BMxQTBL2a3iiyQ45z8-3" target="Z1BMxQTBL2a3iiyQ45z8-4" edge="1">
          <mxGeometry width="50" height="50" relative="1" as="geometry">
            <mxPoint x="400" y="240" as="sourcePoint" />
            <mxPoint x="450" y="190" as="targetPoint" />
          </mxGeometry>
        </mxCell>
        <mxCell id="Z1BMxQTBL2a3iiyQ45z8-7" value="" style="endArrow=classic;html=1;rounded=0;exitX=0;exitY=0;exitDx=0;exitDy=0;entryX=1;entryY=0.5;entryDx=0;entryDy=0;" parent="1" source="Z1BMxQTBL2a3iiyQ45z8-3" target="Z1BMxQTBL2a3iiyQ45z8-1" edge="1">
          <mxGeometry width="50" height="50" relative="1" as="geometry">
            <mxPoint x="400" y="240" as="sourcePoint" />
            <mxPoint x="450" y="190" as="targetPoint" />
          </mxGeometry>
        </mxCell>
        <mxCell id="Z1BMxQTBL2a3iiyQ45z8-8" value="" style="endArrow=classic;html=1;rounded=0;exitX=1;exitY=0;exitDx=0;exitDy=0;entryX=0.164;entryY=1.048;entryDx=0;entryDy=0;entryPerimeter=0;" parent="1" source="Z1BMxQTBL2a3iiyQ45z8-3" target="Z1BMxQTBL2a3iiyQ45z8-2" edge="1">
          <mxGeometry width="50" height="50" relative="1" as="geometry">
            <mxPoint x="400" y="240" as="sourcePoint" />
            <mxPoint x="450" y="190" as="targetPoint" />
          </mxGeometry>
        </mxCell>
        <mxCell id="Z1BMxQTBL2a3iiyQ45z8-9" value="" style="endArrow=classic;html=1;rounded=0;exitX=0.958;exitY=0.768;exitDx=0;exitDy=0;exitPerimeter=0;entryX=0.311;entryY=-0.005;entryDx=0;entryDy=0;entryPerimeter=0;" parent="1" source="Z1BMxQTBL2a3iiyQ45z8-3" target="Z1BMxQTBL2a3iiyQ45z8-5" edge="1">
          <mxGeometry width="50" height="50" relative="1" as="geometry">
            <mxPoint x="400" y="240" as="sourcePoint" />
            <mxPoint x="450" y="190" as="targetPoint" />
          </mxGeometry>
        </mxCell>
        <mxCell id="Z1BMxQTBL2a3iiyQ45z8-10" value="queries" style="shape=cylinder3;whiteSpace=wrap;html=1;boundedLbl=1;backgroundOutline=1;size=15;" parent="1" vertex="1">
          <mxGeometry x="310" y="350" width="70" height="57.5" as="geometry" />
        </mxCell>
        <mxCell id="Z1BMxQTBL2a3iiyQ45z8-11" value="users" style="shape=cylinder3;whiteSpace=wrap;html=1;boundedLbl=1;backgroundOutline=1;size=15;" parent="1" vertex="1">
          <mxGeometry x="70" y="80" width="70" height="60" as="geometry" />
        </mxCell>
        <mxCell id="Z1BMxQTBL2a3iiyQ45z8-12" value="register" style="rounded=0;whiteSpace=wrap;html=1;" parent="1" vertex="1">
          <mxGeometry x="180" y="30" width="70" height="30" as="geometry" />
        </mxCell>
        <mxCell id="Z1BMxQTBL2a3iiyQ45z8-13" value="login" style="rounded=0;whiteSpace=wrap;html=1;" parent="1" vertex="1">
          <mxGeometry x="150" y="180" width="80" height="30" as="geometry" />
        </mxCell>
        <mxCell id="Z1BMxQTBL2a3iiyQ45z8-14" value="" style="endArrow=classic;html=1;rounded=0;exitX=0;exitY=0.5;exitDx=0;exitDy=0;entryX=1;entryY=0.5;entryDx=0;entryDy=0;" parent="1" source="Z1BMxQTBL2a3iiyQ45z8-1" target="Z1BMxQTBL2a3iiyQ45z8-13" edge="1">
          <mxGeometry width="50" height="50" relative="1" as="geometry">
            <mxPoint x="400" y="240" as="sourcePoint" />
            <mxPoint x="450" y="190" as="targetPoint" />
          </mxGeometry>
        </mxCell>
        <mxCell id="Z1BMxQTBL2a3iiyQ45z8-15" value="" style="endArrow=classic;html=1;rounded=0;exitX=0.5;exitY=0;exitDx=0;exitDy=0;entryX=1;entryY=0.5;entryDx=0;entryDy=0;" parent="1" source="Z1BMxQTBL2a3iiyQ45z8-1" target="Z1BMxQTBL2a3iiyQ45z8-12" edge="1">
          <mxGeometry width="50" height="50" relative="1" as="geometry">
            <mxPoint x="400" y="240" as="sourcePoint" />
            <mxPoint x="450" y="190" as="targetPoint" />
          </mxGeometry>
        </mxCell>
        <mxCell id="Z1BMxQTBL2a3iiyQ45z8-16" value="" style="endArrow=classic;html=1;rounded=0;exitX=0;exitY=0.5;exitDx=0;exitDy=0;entryX=0.5;entryY=0;entryDx=0;entryDy=0;entryPerimeter=0;" parent="1" source="Z1BMxQTBL2a3iiyQ45z8-12" target="Z1BMxQTBL2a3iiyQ45z8-11" edge="1">
          <mxGeometry width="50" height="50" relative="1" as="geometry">
            <mxPoint x="400" y="240" as="sourcePoint" />
            <mxPoint x="450" y="190" as="targetPoint" />
          </mxGeometry>
        </mxCell>
        <mxCell id="Z1BMxQTBL2a3iiyQ45z8-17" value="" style="endArrow=classic;html=1;rounded=0;exitX=0.25;exitY=0;exitDx=0;exitDy=0;entryX=0.727;entryY=1.046;entryDx=0;entryDy=0;entryPerimeter=0;" parent="1" source="Z1BMxQTBL2a3iiyQ45z8-13" target="Z1BMxQTBL2a3iiyQ45z8-11" edge="1">
          <mxGeometry width="50" height="50" relative="1" as="geometry">
            <mxPoint x="400" y="240" as="sourcePoint" />
            <mxPoint x="450" y="190" as="targetPoint" />
          </mxGeometry>
        </mxCell>
        <mxCell id="Z1BMxQTBL2a3iiyQ45z8-18" value="" style="endArrow=classic;html=1;rounded=0;exitX=0.25;exitY=1;exitDx=0;exitDy=0;entryX=1;entryY=0.25;entryDx=0;entryDy=0;" parent="1" source="Z1BMxQTBL2a3iiyQ45z8-4" target="Z1BMxQTBL2a3iiyQ45z8-19" edge="1">
          <mxGeometry width="50" height="50" relative="1" as="geometry">
            <mxPoint x="400" y="240" as="sourcePoint" />
            <mxPoint x="220" y="340" as="targetPoint" />
          </mxGeometry>
        </mxCell>
        <mxCell id="Z1BMxQTBL2a3iiyQ45z8-19" value="query" style="rounded=0;whiteSpace=wrap;html=1;" parent="1" vertex="1">
          <mxGeometry x="155" y="340" width="70" height="30" as="geometry" />
        </mxCell>
        <mxCell id="Z1BMxQTBL2a3iiyQ45z8-20" value="" style="endArrow=classic;html=1;rounded=0;exitX=1;exitY=0.75;exitDx=0;exitDy=0;entryX=0;entryY=0.5;entryDx=0;entryDy=0;entryPerimeter=0;" parent="1" source="Z1BMxQTBL2a3iiyQ45z8-19" target="Z1BMxQTBL2a3iiyQ45z8-10" edge="1">
          <mxGeometry width="50" height="50" relative="1" as="geometry">
            <mxPoint x="400" y="300" as="sourcePoint" />
            <mxPoint x="450" y="250" as="targetPoint" />
          </mxGeometry>
        </mxCell>
        <mxCell id="Z1BMxQTBL2a3iiyQ45z8-21" value="admin" style="rounded=0;whiteSpace=wrap;html=1;" parent="1" vertex="1">
          <mxGeometry x="450" y="380" width="70" height="30" as="geometry" />
        </mxCell>
        <mxCell id="Z1BMxQTBL2a3iiyQ45z8-22" value="" style="endArrow=classic;html=1;rounded=0;exitX=1;exitY=0.5;exitDx=0;exitDy=0;exitPerimeter=0;entryX=0;entryY=0.5;entryDx=0;entryDy=0;" parent="1" source="Z1BMxQTBL2a3iiyQ45z8-10" target="Z1BMxQTBL2a3iiyQ45z8-21" edge="1">
          <mxGeometry width="50" height="50" relative="1" as="geometry">
            <mxPoint x="400" y="300" as="sourcePoint" />
            <mxPoint x="450" y="250" as="targetPoint" />
          </mxGeometry>
        </mxCell>
        <mxCell id="Z1BMxQTBL2a3iiyQ45z8-23" value="API" style="shape=cylinder3;whiteSpace=wrap;html=1;boundedLbl=1;backgroundOutline=1;size=15;" parent="1" vertex="1">
          <mxGeometry x="670" y="70" width="70" height="60" as="geometry" />
        </mxCell>
        <mxCell id="Z1BMxQTBL2a3iiyQ45z8-24" value="" style="endArrow=classic;html=1;rounded=0;exitX=0;exitY=0.5;exitDx=0;exitDy=0;exitPerimeter=0;entryX=1;entryY=0.5;entryDx=0;entryDy=0;" parent="1" source="Z1BMxQTBL2a3iiyQ45z8-23" target="Z1BMxQTBL2a3iiyQ45z8-2" edge="1">
          <mxGeometry width="50" height="50" relative="1" as="geometry">
            <mxPoint x="400" y="240" as="sourcePoint" />
            <mxPoint x="690" y="200" as="targetPoint" />
          </mxGeometry>
        </mxCell>
        <mxCell id="Z1BMxQTBL2a3iiyQ45z8-25" value="" style="endArrow=classic;html=1;rounded=0;exitX=0.75;exitY=1;exitDx=0;exitDy=0;entryX=0.65;entryY=-0.032;entryDx=0;entryDy=0;entryPerimeter=0;" parent="1" source="Z1BMxQTBL2a3iiyQ45z8-2" target="Z1BMxQTBL2a3iiyQ45z8-5" edge="1">
          <mxGeometry width="50" height="50" relative="1" as="geometry">
            <mxPoint x="400" y="240" as="sourcePoint" />
            <mxPoint x="450" y="190" as="targetPoint" />
          </mxGeometry>
        </mxCell>
        <mxCell id="Z1BMxQTBL2a3iiyQ45z8-26" value="ML model" style="shape=cylinder3;whiteSpace=wrap;html=1;boundedLbl=1;backgroundOutline=1;size=15;" parent="1" vertex="1">
          <mxGeometry x="700" y="290" width="70" height="70" as="geometry" />
        </mxCell>
        <mxCell id="Z1BMxQTBL2a3iiyQ45z8-27" value="" style="endArrow=classic;html=1;rounded=0;exitX=1;exitY=0.5;exitDx=0;exitDy=0;entryX=0;entryY=0;entryDx=0;entryDy=25;entryPerimeter=0;" parent="1" source="Z1BMxQTBL2a3iiyQ45z8-5" target="Z1BMxQTBL2a3iiyQ45z8-26" edge="1">
          <mxGeometry width="50" height="50" relative="1" as="geometry">
            <mxPoint x="450" y="240" as="sourcePoint" />
            <mxPoint x="500" y="190" as="targetPoint" />
          </mxGeometry>
        </mxCell>
        <mxCell id="Z1BMxQTBL2a3iiyQ45z8-28" value="" style="endArrow=classic;html=1;rounded=0;exitX=0;exitY=0.5;exitDx=0;exitDy=0;exitPerimeter=0;entryX=1;entryY=0.75;entryDx=0;entryDy=0;" parent="1" source="Z1BMxQTBL2a3iiyQ45z8-26" target="Z1BMxQTBL2a3iiyQ45z8-5" edge="1">
          <mxGeometry width="50" height="50" relative="1" as="geometry">
            <mxPoint x="450" y="240" as="sourcePoint" />
            <mxPoint x="500" y="190" as="targetPoint" />
          </mxGeometry>
        </mxCell>
        <mxCell id="WRYhusAY8nEEkW-8xAq9-2" value="Vaibhav patel&lt;br&gt;201070055" style="text;html=1;align=center;verticalAlign=middle;resizable=0;points=[];autosize=1;strokeColor=none;fillColor=none;" vertex="1" parent="1">
          <mxGeometry x="350" y="50" width="100" height="40" as="geometry" />
        </mxCell>
        <mxCell id="WRYhusAY8nEEkW-8xAq9-3" value="DFD level 1" style="text;html=1;align=center;verticalAlign=middle;resizable=0;points=[];autosize=1;strokeColor=none;fillColor=none;" vertex="1" parent="1">
          <mxGeometry x="535" y="55" width="90" height="30" as="geometry" />
        </mxCell>
      </root>
    </mxGraphModel>
  </diagram>
  <diagram id="Ha--I9dDi4Q_yAipF4xZ" name="Page-3">
    <mxGraphModel dx="827" dy="399" grid="0" gridSize="10" guides="1" tooltips="1" connect="1" arrows="1" fold="1" page="1" pageScale="1" pageWidth="850" pageHeight="1100" math="0" shadow="0">
      <root>
        <mxCell id="0" />
        <mxCell id="1" parent="0" />
        <mxCell id="2-Bsb-OtpSWYMIayVnVx-1" value="User" style="text;html=1;align=center;verticalAlign=middle;resizable=0;points=[];autosize=1;strokeColor=none;fillColor=none;" parent="1" vertex="1">
          <mxGeometry x="155" y="100" width="50" height="30" as="geometry" />
        </mxCell>
        <mxCell id="2-Bsb-OtpSWYMIayVnVx-2" value="Login/register" style="text;html=1;align=center;verticalAlign=middle;resizable=0;points=[];autosize=1;strokeColor=none;fillColor=none;" parent="1" vertex="1">
          <mxGeometry x="280" y="35" width="100" height="30" as="geometry" />
        </mxCell>
        <mxCell id="2-Bsb-OtpSWYMIayVnVx-3" value="" style="endArrow=classic;html=1;rounded=0;exitX=1.024;exitY=0.634;exitDx=0;exitDy=0;exitPerimeter=0;" parent="1" source="2-Bsb-OtpSWYMIayVnVx-1" edge="1">
          <mxGeometry width="50" height="50" relative="1" as="geometry">
            <mxPoint x="400" y="240" as="sourcePoint" />
            <mxPoint x="380" y="120" as="targetPoint" />
          </mxGeometry>
        </mxCell>
        <mxCell id="2-Bsb-OtpSWYMIayVnVx-6" value="register" style="rounded=0;whiteSpace=wrap;html=1;" parent="1" vertex="1">
          <mxGeometry x="380" y="100" width="80" height="40" as="geometry" />
        </mxCell>
        <mxCell id="2-Bsb-OtpSWYMIayVnVx-7" value="users" style="shape=cylinder3;whiteSpace=wrap;html=1;boundedLbl=1;backgroundOutline=1;size=15;" parent="1" vertex="1">
          <mxGeometry x="560" y="180" width="70" height="60" as="geometry" />
        </mxCell>
        <mxCell id="2-Bsb-OtpSWYMIayVnVx-8" value="login" style="rounded=0;whiteSpace=wrap;html=1;" parent="1" vertex="1">
          <mxGeometry x="280" y="240" width="70" height="40" as="geometry" />
        </mxCell>
        <mxCell id="2-Bsb-OtpSWYMIayVnVx-9" value="" style="endArrow=classic;html=1;rounded=0;entryX=0.38;entryY=0.049;entryDx=0;entryDy=0;entryPerimeter=0;" parent="1" target="2-Bsb-OtpSWYMIayVnVx-8" edge="1">
          <mxGeometry width="50" height="50" relative="1" as="geometry">
            <mxPoint x="267" y="120" as="sourcePoint" />
            <mxPoint x="450" y="190" as="targetPoint" />
          </mxGeometry>
        </mxCell>
        <mxCell id="2-Bsb-OtpSWYMIayVnVx-10" value="" style="endArrow=classic;html=1;rounded=0;exitX=1;exitY=0.5;exitDx=0;exitDy=0;entryX=0.008;entryY=0.073;entryDx=0;entryDy=0;entryPerimeter=0;" parent="1" source="2-Bsb-OtpSWYMIayVnVx-6" target="2-Bsb-OtpSWYMIayVnVx-7" edge="1">
          <mxGeometry width="50" height="50" relative="1" as="geometry">
            <mxPoint x="400" y="240" as="sourcePoint" />
            <mxPoint x="450" y="190" as="targetPoint" />
          </mxGeometry>
        </mxCell>
        <mxCell id="2-Bsb-OtpSWYMIayVnVx-11" value="" style="endArrow=classic;html=1;rounded=0;exitX=1;exitY=0;exitDx=0;exitDy=0;entryX=0;entryY=0.5;entryDx=0;entryDy=0;" parent="1" source="2-Bsb-OtpSWYMIayVnVx-6" target="2-Bsb-OtpSWYMIayVnVx-13" edge="1">
          <mxGeometry width="50" height="50" relative="1" as="geometry">
            <mxPoint x="400" y="240" as="sourcePoint" />
            <mxPoint x="450" y="190" as="targetPoint" />
          </mxGeometry>
        </mxCell>
        <mxCell id="2-Bsb-OtpSWYMIayVnVx-13" value="username exist" style="rounded=0;whiteSpace=wrap;html=1;" parent="1" vertex="1">
          <mxGeometry x="550" y="35" width="90" height="45" as="geometry" />
        </mxCell>
        <mxCell id="2-Bsb-OtpSWYMIayVnVx-14" value="" style="endArrow=classic;html=1;rounded=0;exitX=0;exitY=0.25;exitDx=0;exitDy=0;entryX=0.75;entryY=0;entryDx=0;entryDy=0;" parent="1" source="2-Bsb-OtpSWYMIayVnVx-13" target="2-Bsb-OtpSWYMIayVnVx-6" edge="1">
          <mxGeometry width="50" height="50" relative="1" as="geometry">
            <mxPoint x="400" y="190" as="sourcePoint" />
            <mxPoint x="450" y="140" as="targetPoint" />
          </mxGeometry>
        </mxCell>
        <mxCell id="2-Bsb-OtpSWYMIayVnVx-15" value="" style="endArrow=classic;html=1;rounded=0;exitX=0.172;exitY=1.054;exitDx=0;exitDy=0;exitPerimeter=0;entryX=0.75;entryY=0;entryDx=0;entryDy=0;" parent="1" source="2-Bsb-OtpSWYMIayVnVx-6" target="2-Bsb-OtpSWYMIayVnVx-8" edge="1">
          <mxGeometry width="50" height="50" relative="1" as="geometry">
            <mxPoint x="400" y="190" as="sourcePoint" />
            <mxPoint x="450" y="140" as="targetPoint" />
          </mxGeometry>
        </mxCell>
        <mxCell id="2-Bsb-OtpSWYMIayVnVx-16" value="" style="endArrow=classic;html=1;rounded=0;entryX=0;entryY=1;entryDx=0;entryDy=0;exitX=0.6;exitY=-0.045;exitDx=0;exitDy=0;exitPerimeter=0;" parent="1" source="2-Bsb-OtpSWYMIayVnVx-8" target="2-Bsb-OtpSWYMIayVnVx-6" edge="1">
          <mxGeometry width="50" height="50" relative="1" as="geometry">
            <mxPoint x="280" y="250" as="sourcePoint" />
            <mxPoint x="450" y="140" as="targetPoint" />
          </mxGeometry>
        </mxCell>
        <mxCell id="2-Bsb-OtpSWYMIayVnVx-19" value="" style="endArrow=classic;html=1;rounded=0;exitX=1;exitY=0.25;exitDx=0;exitDy=0;entryX=0;entryY=0;entryDx=0;entryDy=22.5;entryPerimeter=0;" parent="1" source="2-Bsb-OtpSWYMIayVnVx-8" target="2-Bsb-OtpSWYMIayVnVx-7" edge="1">
          <mxGeometry width="50" height="50" relative="1" as="geometry">
            <mxPoint x="400" y="190" as="sourcePoint" />
            <mxPoint x="450" y="140" as="targetPoint" />
          </mxGeometry>
        </mxCell>
        <mxCell id="2-Bsb-OtpSWYMIayVnVx-20" value="" style="endArrow=classic;html=1;rounded=0;exitX=0;exitY=0.5;exitDx=0;exitDy=0;exitPerimeter=0;entryX=1;entryY=0.5;entryDx=0;entryDy=0;" parent="1" source="2-Bsb-OtpSWYMIayVnVx-7" target="2-Bsb-OtpSWYMIayVnVx-8" edge="1">
          <mxGeometry width="50" height="50" relative="1" as="geometry">
            <mxPoint x="400" y="190" as="sourcePoint" />
            <mxPoint x="450" y="140" as="targetPoint" />
          </mxGeometry>
        </mxCell>
        <mxCell id="LOAyqalbK4UotzgJX-dI-1" value="Vaibhav patel&lt;br&gt;201070055" style="text;html=1;align=center;verticalAlign=middle;resizable=0;points=[];autosize=1;strokeColor=none;fillColor=none;" vertex="1" parent="1">
          <mxGeometry x="509" y="251" width="90" height="41" as="geometry" />
        </mxCell>
        <mxCell id="cEshI598j2Al5YMRJE4z-1" value="DFD level 2" style="text;html=1;align=center;verticalAlign=middle;resizable=0;points=[];autosize=1;strokeColor=none;fillColor=none;" vertex="1" parent="1">
          <mxGeometry x="533" y="119" width="90" height="30" as="geometry" />
        </mxCell>
      </root>
    </mxGraphModel>
  </diagram>
  <diagram id="0KTQ5Bf0oegrCUXFFj3M" name="Page-4">
    <mxGraphModel dx="827" dy="399" grid="0" gridSize="10" guides="1" tooltips="1" connect="1" arrows="1" fold="1" page="1" pageScale="1" pageWidth="850" pageHeight="1100" math="0" shadow="0">
      <root>
        <mxCell id="0" />
        <mxCell id="1" parent="0" />
        <mxCell id="JUVMGHR05tcWS3eij4qq-1" value="help" style="text;html=1;align=center;verticalAlign=middle;resizable=0;points=[];autosize=1;strokeColor=none;fillColor=none;" parent="1" vertex="1">
          <mxGeometry x="330" y="60" width="50" height="30" as="geometry" />
        </mxCell>
        <mxCell id="JUVMGHR05tcWS3eij4qq-2" value="User" style="text;html=1;align=center;verticalAlign=middle;resizable=0;points=[];autosize=1;strokeColor=none;fillColor=none;" parent="1" vertex="1">
          <mxGeometry x="195" y="260" width="50" height="30" as="geometry" />
        </mxCell>
        <mxCell id="JUVMGHR05tcWS3eij4qq-3" value="admin" style="text;html=1;align=center;verticalAlign=middle;resizable=0;points=[];autosize=1;strokeColor=none;fillColor=none;" parent="1" vertex="1">
          <mxGeometry x="470" y="270" width="60" height="30" as="geometry" />
        </mxCell>
        <mxCell id="JUVMGHR05tcWS3eij4qq-4" value="queries" style="shape=cylinder3;whiteSpace=wrap;html=1;boundedLbl=1;backgroundOutline=1;size=15;" parent="1" vertex="1">
          <mxGeometry x="425" y="110" width="70" height="60" as="geometry" />
        </mxCell>
        <mxCell id="JUVMGHR05tcWS3eij4qq-5" value="have doubt" style="rounded=0;whiteSpace=wrap;html=1;" parent="1" vertex="1">
          <mxGeometry x="245" y="150" width="70" height="30" as="geometry" />
        </mxCell>
        <mxCell id="JUVMGHR05tcWS3eij4qq-6" value="" style="endArrow=classic;html=1;rounded=0;entryX=0.25;entryY=1;entryDx=0;entryDy=0;" parent="1" source="JUVMGHR05tcWS3eij4qq-2" target="JUVMGHR05tcWS3eij4qq-5" edge="1">
          <mxGeometry width="50" height="50" relative="1" as="geometry">
            <mxPoint x="400" y="240" as="sourcePoint" />
            <mxPoint x="450" y="190" as="targetPoint" />
          </mxGeometry>
        </mxCell>
        <mxCell id="JUVMGHR05tcWS3eij4qq-7" value="help form" style="rounded=0;whiteSpace=wrap;html=1;" parent="1" vertex="1">
          <mxGeometry x="330" y="220" width="65" height="40" as="geometry" />
        </mxCell>
        <mxCell id="JUVMGHR05tcWS3eij4qq-8" value="" style="endArrow=classic;html=1;rounded=0;exitX=1;exitY=0.75;exitDx=0;exitDy=0;entryX=0.36;entryY=0.042;entryDx=0;entryDy=0;entryPerimeter=0;" parent="1" source="JUVMGHR05tcWS3eij4qq-5" target="JUVMGHR05tcWS3eij4qq-7" edge="1">
          <mxGeometry width="50" height="50" relative="1" as="geometry">
            <mxPoint x="400" y="240" as="sourcePoint" />
            <mxPoint x="450" y="190" as="targetPoint" />
          </mxGeometry>
        </mxCell>
        <mxCell id="JUVMGHR05tcWS3eij4qq-9" value="" style="endArrow=classic;html=1;rounded=0;exitX=0.75;exitY=0;exitDx=0;exitDy=0;entryX=0;entryY=1;entryDx=0;entryDy=-15;entryPerimeter=0;" parent="1" source="JUVMGHR05tcWS3eij4qq-7" target="JUVMGHR05tcWS3eij4qq-4" edge="1">
          <mxGeometry width="50" height="50" relative="1" as="geometry">
            <mxPoint x="400" y="240" as="sourcePoint" />
            <mxPoint x="450" y="190" as="targetPoint" />
          </mxGeometry>
        </mxCell>
        <mxCell id="JUVMGHR05tcWS3eij4qq-10" value="" style="endArrow=classic;html=1;rounded=0;exitX=0.643;exitY=1.026;exitDx=0;exitDy=0;exitPerimeter=0;" parent="1" source="JUVMGHR05tcWS3eij4qq-4" target="JUVMGHR05tcWS3eij4qq-3" edge="1">
          <mxGeometry width="50" height="50" relative="1" as="geometry">
            <mxPoint x="400" y="240" as="sourcePoint" />
            <mxPoint x="450" y="190" as="targetPoint" />
          </mxGeometry>
        </mxCell>
        <mxCell id="JUVMGHR05tcWS3eij4qq-11" value="send email" style="rounded=0;whiteSpace=wrap;html=1;" parent="1" vertex="1">
          <mxGeometry x="327.5" y="310" width="70" height="30" as="geometry" />
        </mxCell>
        <mxCell id="JUVMGHR05tcWS3eij4qq-12" value="" style="endArrow=classic;html=1;rounded=0;exitX=-0.065;exitY=0.786;exitDx=0;exitDy=0;exitPerimeter=0;entryX=1;entryY=0.25;entryDx=0;entryDy=0;" parent="1" source="JUVMGHR05tcWS3eij4qq-3" target="JUVMGHR05tcWS3eij4qq-11" edge="1">
          <mxGeometry width="50" height="50" relative="1" as="geometry">
            <mxPoint x="400" y="240" as="sourcePoint" />
            <mxPoint x="450" y="190" as="targetPoint" />
          </mxGeometry>
        </mxCell>
        <mxCell id="JUVMGHR05tcWS3eij4qq-13" value="" style="endArrow=classic;html=1;rounded=0;exitX=0;exitY=0.5;exitDx=0;exitDy=0;entryX=0.925;entryY=0.969;entryDx=0;entryDy=0;entryPerimeter=0;" parent="1" source="JUVMGHR05tcWS3eij4qq-11" target="JUVMGHR05tcWS3eij4qq-2" edge="1">
          <mxGeometry width="50" height="50" relative="1" as="geometry">
            <mxPoint x="400" y="240" as="sourcePoint" />
            <mxPoint x="450" y="190" as="targetPoint" />
          </mxGeometry>
        </mxCell>
        <mxCell id="OunRUNzx6FjA3EunhnJq-1" value="Vaibhav patel&lt;br&gt;201070055" style="text;html=1;align=center;verticalAlign=middle;resizable=0;points=[];autosize=1;strokeColor=none;fillColor=none;" vertex="1" parent="1">
          <mxGeometry x="225" y="80" width="90" height="41" as="geometry" />
        </mxCell>
        <mxCell id="HZl0gk_89JD3uIOmtFEo-1" value="DFD level 2" style="text;html=1;align=center;verticalAlign=middle;resizable=0;points=[];autosize=1;strokeColor=none;fillColor=none;" vertex="1" parent="1">
          <mxGeometry x="495" y="190" width="90" height="30" as="geometry" />
        </mxCell>
      </root>
    </mxGraphModel>
  </diagram>
  <diagram id="AcnIpgrUNmjTQWk6jAma" name="Page-5">
    <mxGraphModel dx="827" dy="399" grid="0" gridSize="10" guides="1" tooltips="1" connect="1" arrows="1" fold="1" page="1" pageScale="1" pageWidth="850" pageHeight="1100" math="0" shadow="0">
      <root>
        <mxCell id="0" />
        <mxCell id="1" parent="0" />
        <mxCell id="f8XIgmHMKMQxYegWpBOO-1" value="matches/predictions" style="text;html=1;align=center;verticalAlign=middle;resizable=0;points=[];autosize=1;strokeColor=none;fillColor=none;" parent="1" vertex="1">
          <mxGeometry x="325" y="40" width="130" height="30" as="geometry" />
        </mxCell>
        <mxCell id="f8XIgmHMKMQxYegWpBOO-2" value="cricket API" style="shape=cylinder3;whiteSpace=wrap;html=1;boundedLbl=1;backgroundOutline=1;size=15;" parent="1" vertex="1">
          <mxGeometry x="520" y="110" width="80" height="60" as="geometry" />
        </mxCell>
        <mxCell id="f8XIgmHMKMQxYegWpBOO-3" value="ML model" style="shape=cylinder3;whiteSpace=wrap;html=1;boundedLbl=1;backgroundOutline=1;size=15;" parent="1" vertex="1">
          <mxGeometry x="470" y="240" width="70" height="60" as="geometry" />
        </mxCell>
        <mxCell id="f8XIgmHMKMQxYegWpBOO-4" value="" style="endArrow=classic;html=1;rounded=0;exitX=0.5;exitY=1;exitDx=0;exitDy=0;exitPerimeter=0;entryX=0.5;entryY=0;entryDx=0;entryDy=0;entryPerimeter=0;" parent="1" source="f8XIgmHMKMQxYegWpBOO-2" target="f8XIgmHMKMQxYegWpBOO-3" edge="1">
          <mxGeometry width="50" height="50" relative="1" as="geometry">
            <mxPoint x="400" y="240" as="sourcePoint" />
            <mxPoint x="450" y="190" as="targetPoint" />
          </mxGeometry>
        </mxCell>
        <mxCell id="f8XIgmHMKMQxYegWpBOO-5" value="User" style="text;html=1;align=center;verticalAlign=middle;resizable=0;points=[];autosize=1;strokeColor=none;fillColor=none;" parent="1" vertex="1">
          <mxGeometry x="145" y="105" width="50" height="30" as="geometry" />
        </mxCell>
        <mxCell id="f8XIgmHMKMQxYegWpBOO-6" value="" style="endArrow=classic;html=1;rounded=0;exitX=1.055;exitY=0.58;exitDx=0;exitDy=0;exitPerimeter=0;" parent="1" source="f8XIgmHMKMQxYegWpBOO-5" target="f8XIgmHMKMQxYegWpBOO-7" edge="1">
          <mxGeometry width="50" height="50" relative="1" as="geometry">
            <mxPoint x="400" y="240" as="sourcePoint" />
            <mxPoint x="330" y="140" as="targetPoint" />
          </mxGeometry>
        </mxCell>
        <mxCell id="f8XIgmHMKMQxYegWpBOO-7" value="select a match" style="rounded=0;whiteSpace=wrap;html=1;" parent="1" vertex="1">
          <mxGeometry x="270" y="130" width="100" height="40" as="geometry" />
        </mxCell>
        <mxCell id="f8XIgmHMKMQxYegWpBOO-8" value="" style="endArrow=classic;html=1;rounded=0;exitX=0;exitY=0.5;exitDx=0;exitDy=0;exitPerimeter=0;entryX=1;entryY=0.5;entryDx=0;entryDy=0;" parent="1" source="f8XIgmHMKMQxYegWpBOO-2" target="f8XIgmHMKMQxYegWpBOO-7" edge="1">
          <mxGeometry width="50" height="50" relative="1" as="geometry">
            <mxPoint x="400" y="240" as="sourcePoint" />
            <mxPoint x="450" y="190" as="targetPoint" />
          </mxGeometry>
        </mxCell>
        <mxCell id="f8XIgmHMKMQxYegWpBOO-9" value="" style="endArrow=classic;html=1;rounded=0;exitX=0.5;exitY=1;exitDx=0;exitDy=0;" parent="1" source="f8XIgmHMKMQxYegWpBOO-7" edge="1">
          <mxGeometry width="50" height="50" relative="1" as="geometry">
            <mxPoint x="400" y="240" as="sourcePoint" />
            <mxPoint x="290" y="240" as="targetPoint" />
          </mxGeometry>
        </mxCell>
        <mxCell id="f8XIgmHMKMQxYegWpBOO-11" value="get prediction" style="rounded=0;whiteSpace=wrap;html=1;" parent="1" vertex="1">
          <mxGeometry x="245" y="240" width="85" height="40" as="geometry" />
        </mxCell>
        <mxCell id="f8XIgmHMKMQxYegWpBOO-12" value="" style="endArrow=classic;html=1;rounded=0;exitX=1;exitY=0.5;exitDx=0;exitDy=0;entryX=0;entryY=0;entryDx=0;entryDy=22.5;entryPerimeter=0;" parent="1" source="f8XIgmHMKMQxYegWpBOO-11" target="f8XIgmHMKMQxYegWpBOO-3" edge="1">
          <mxGeometry width="50" height="50" relative="1" as="geometry">
            <mxPoint x="400" y="240" as="sourcePoint" />
            <mxPoint x="450" y="190" as="targetPoint" />
          </mxGeometry>
        </mxCell>
        <mxCell id="f8XIgmHMKMQxYegWpBOO-14" value="" style="endArrow=classic;html=1;rounded=0;exitX=0;exitY=0;exitDx=0;exitDy=37.5;exitPerimeter=0;entryX=1;entryY=0.75;entryDx=0;entryDy=0;" parent="1" source="f8XIgmHMKMQxYegWpBOO-3" target="f8XIgmHMKMQxYegWpBOO-11" edge="1">
          <mxGeometry width="50" height="50" relative="1" as="geometry">
            <mxPoint x="400" y="240" as="sourcePoint" />
            <mxPoint x="450" y="190" as="targetPoint" />
          </mxGeometry>
        </mxCell>
        <mxCell id="f8XIgmHMKMQxYegWpBOO-15" value="" style="endArrow=classic;html=1;rounded=0;exitX=0;exitY=0.5;exitDx=0;exitDy=0;entryX=0.5;entryY=1.167;entryDx=0;entryDy=0;entryPerimeter=0;" parent="1" source="f8XIgmHMKMQxYegWpBOO-11" target="f8XIgmHMKMQxYegWpBOO-5" edge="1">
          <mxGeometry width="50" height="50" relative="1" as="geometry">
            <mxPoint x="400" y="240" as="sourcePoint" />
            <mxPoint x="450" y="190" as="targetPoint" />
          </mxGeometry>
        </mxCell>
        <mxCell id="8OOLJvV7adJM52JqShPP-1" value="Vaibhav patel&lt;br&gt;201070055" style="text;html=1;align=center;verticalAlign=middle;resizable=0;points=[];autosize=1;strokeColor=none;fillColor=none;" vertex="1" parent="1">
          <mxGeometry x="380" y="180" width="90" height="41" as="geometry" />
        </mxCell>
        <mxCell id="8OOLJvV7adJM52JqShPP-2" value="DFD level 2" style="text;html=1;align=center;verticalAlign=middle;resizable=0;points=[];autosize=1;strokeColor=none;fillColor=none;" vertex="1" parent="1">
          <mxGeometry x="505" y="35" width="90" height="30" as="geometry" />
        </mxCell>
      </root>
    </mxGraphModel>
  </diagram>
</mxfile>
